<svg xmlns="http://www.w3.org/2000/svg" xmlns:xlink="http://www.w3.org/1999/xlink" width="115.001" height="26" viewBox="0 0 115.001 26">
  <defs>
    <clipPath id="clip-path">
      <rect id="Rectangle_3242" data-name="Rectangle 3242" width="78" height="12" transform="translate(0.076 0.1)" fill="#fff" stroke="#707070" stroke-width="1"/>
    </clipPath>
    <clipPath id="clip-path-2">
      <rect id="Rectangle_3243" data-name="Rectangle 3243" width="45" height="26" transform="translate(-0.001 0.375)" fill="#fff" stroke="#707070" stroke-width="1"/>
    </clipPath>
  </defs>
  <g id="Group_2631" data-name="Group 2631" transform="translate(5970.28 -5871.118)">
    <g id="Group_2651" data-name="Group 2651" transform="translate(-5970.28 5870.743)">
      <g id="Mask_Group_29" data-name="Mask Group 29" transform="translate(36.925 5.275)" clip-path="url(#clip-path)">
        <path id="Path_2449" data-name="Path 2449" d="M63.127,77.253a1.779,1.779,0,0,1-.623-.331c-1.772-1.694.487-3.681,3.1-4.829V68.82c.623.37.935.409.974.467L68.56,67.3,67.9,65.626c5.843-2.025,8.2-2.8,12.95-3.6l-.856-.779,1.4-.818c3.194,1.071,6.174,1.344,5.668,4.012.136-1.792-2.1-2.493-5.57-3.467l-.643.409,1.266,1.051a76.593,76.593,0,0,0-13.34,3.525l.546,1.48-2.065,2.045a8.937,8.937,0,0,0,7.771-1.324c.019-.019.078-.039.078-.078a5.666,5.666,0,0,0-.681-.662A1.817,1.817,0,0,1,76.1,69.482H75.59a1.438,1.438,0,0,0-.156-.915,9.869,9.869,0,0,1-9.212,1.441V72.54c-1.422.487-3.934,2.045-3.915,3.544a1.4,1.4,0,0,0,.818,1.169Z" transform="translate(-40.398 -81.955)" fill-rule="evenodd"/>
        <g id="Group_2629" data-name="Group 2629" transform="translate(0.41 -22.6)">
          <path id="Path_2450" data-name="Path 2450" d="M47.05,75.168a23.516,23.516,0,0,1-10.809,3.058c-6.018-.117-6.953-4.129-4.09-8.316,2.687-4.226,6.972-8.062,13.807-10.458a25.16,25.16,0,0,1,7.673-1.519c4.031-.039,7.945,1.227,7.693,5.064-.137,2.96-4.4,7.147-6.641,10.147-.974,1.305-1.129,2.142.506,2.083,5.94-.389,11.373-2.453,16.359-4.6-3.35,2.278-20.916,10.983-21.013,5.044A4.709,4.709,0,0,1,51.49,73.3a29.15,29.15,0,0,1,2.143-2.649c1.188-1.363,4.148-4.635,5.141-6.6,1.675-3.7-2.084-3.9-5.316-5.044l-1.4.818.837.779c-4.732.8-7.089,1.577-12.931,3.6l.662,1.675-1.986,1.987c-.039-.058-.35-.1-.974-.467V70.67c-2.609,1.149-4.869,3.135-3.1,4.829a1.772,1.772,0,0,0,.623.331h-.02C38.384,77.642,47.069,75.168,47.05,75.168ZM27.03,83.776V82.257h2.22v1.519Zm.1,6.251V84.614h2.064v5.413H27.127Zm46.409-4.771a1.986,1.986,0,1,1,0,3.973,1.986,1.986,0,1,1,0-3.973Zm0,4.908a2.917,2.917,0,1,0-2.067-.854A2.913,2.913,0,0,0,73.536,90.164Zm-10.613-.137h.915V89.19h-.915Zm6.952-.7a2.853,2.853,0,0,1-2.025.837,2.911,2.911,0,0,1,0-5.823,2.985,2.985,0,0,1,2.025.837,4.255,4.255,0,0,0-.409.935,1.94,1.94,0,0,0-1.616-.856,2,2,0,0,0,0,3.992,2.033,2.033,0,0,0,1.636-.857A3.866,3.866,0,0,0,69.875,89.327Zm7.868.7V84.614h.818v.759a1.961,1.961,0,0,1,1.656-.9,1.844,1.844,0,0,1,.973.254,1.383,1.383,0,0,1,.546.7,1.98,1.98,0,0,1,1.675-.955,1.633,1.633,0,0,1,1.227.448,1.931,1.931,0,0,1,.447,1.382v3.719h-.915V86.62a2.472,2.472,0,0,0-.1-.8.75.75,0,0,0-.312-.389,1.06,1.06,0,0,0-.565-.156,1.279,1.279,0,0,0-.935.389,1.663,1.663,0,0,0-.389,1.208v3.154h-.915V86.5a1.629,1.629,0,0,0-.214-.915A.91.91,0,0,0,80,85.276a1.409,1.409,0,0,0-.72.214,1.168,1.168,0,0,0-.468.584,3.457,3.457,0,0,0-.156,1.149v2.8h-.915Zm6.992-6.6V82.393h-.389v-.136h.935v.136h-.39v1.033Zm.682,0V82.257h.233l.292.837a.9.9,0,0,0,.058.175.527.527,0,0,1,.059-.195l.273-.818h.214v1.169h-.156v-.974l-.331.974H85.9l-.331-.993v.993h-.156Zm-26.369,5.8a2.046,2.046,0,0,1-.974.681,1.652,1.652,0,0,1-.292.1,4.838,4.838,0,0,1-1.246.137,2.5,2.5,0,0,1-1.578-.428,1.373,1.373,0,0,1-.565-1.208,1.828,1.828,0,0,1,.214-.877,1.784,1.784,0,0,1,.624-.643,2.423,2.423,0,0,1,.915-.292,15.183,15.183,0,0,1,1.636-.077h1.226v-.156a.825.825,0,0,0-.253-.662,1.111,1.111,0,0,0-.76-.233H57.78a1.6,1.6,0,0,0-.623.156.679.679,0,0,0-.331.487H54.742a1.62,1.62,0,0,1,.9-1.306A5.029,5.029,0,0,1,57.78,84.5a1.039,1.039,0,0,1,.254-.019,3.962,3.962,0,0,1,2.239.506,1.8,1.8,0,0,1,.74,1.578v2.746a2.159,2.159,0,0,0,.02.389,1.582,1.582,0,0,0,.078.331H59.182a1.623,1.623,0,0,1-.1-.331,2.164,2.164,0,0,1-.039-.369v-.1h0Zm-1.266-.254a1.474,1.474,0,0,0,.857-.331,1.143,1.143,0,0,0,.369-.915v-.116h-.175a8.547,8.547,0,0,0-1.052.039,2.989,2.989,0,0,0-.74.136.607.607,0,0,0-.487.584.48.48,0,0,0,.253.448,1.622,1.622,0,0,0,.779.155Zm-6.232-1.811A1.643,1.643,0,0,0,51.14,86a1.38,1.38,0,0,0-1.071-.428H50.05a1.384,1.384,0,0,0-1.11.428,2.158,2.158,0,0,0,0,2.474,1.394,1.394,0,0,0,1.091.428h.019a1.379,1.379,0,0,0,1.091-.448A1.887,1.887,0,0,0,51.549,87.165Zm-1.5-2.59a2.891,2.891,0,0,1,.837-.1,2.617,2.617,0,0,1,2.785,2.8,2.99,2.99,0,0,1-.72,2.1,2.688,2.688,0,0,1-2.025.76,3.143,3.143,0,0,1-.877-.117,1.784,1.784,0,0,1-.448-.175,2.856,2.856,0,0,1-1.032-.837v.155a3.026,3.026,0,0,1-.019.428,3.188,3.188,0,0,1-.039.428H46.426q.029-.35.058-.642c.019-.214.019-.409.019-.583V82.258h2.064v3.135a2.809,2.809,0,0,1,1.052-.682,1.587,1.587,0,0,1,.429-.137Zm-6.914,4.655a2.106,2.106,0,0,1-.993.681,1.008,1.008,0,0,1-.292.1,4.684,4.684,0,0,1-1.227.137,2.559,2.559,0,0,1-1.6-.428,1.42,1.42,0,0,1-.565-1.208,1.635,1.635,0,0,1,.234-.877,1.781,1.781,0,0,1,.623-.643,2.318,2.318,0,0,1,.9-.292,15.8,15.8,0,0,1,1.636-.077h1.227a.115.115,0,0,1,.02-.078v-.078a.9.9,0,0,0-.253-.662,1.111,1.111,0,0,0-.759-.233H41.85a1.5,1.5,0,0,0-.6.156.631.631,0,0,0-.331.487h-2.1a1.644,1.644,0,0,1,.915-1.306A4.929,4.929,0,0,1,41.85,84.5a1.2,1.2,0,0,1,.253-.019,4.037,4.037,0,0,1,2.259.506,1.788,1.788,0,0,1,.721,1.578v2.746c0,.156.019.292.019.389a1.6,1.6,0,0,0,.1.331H43.272a.929.929,0,0,1-.1-.331,2.161,2.161,0,0,1-.039-.369v-.1h0Zm-1.285-.254a1.377,1.377,0,0,0,.857-.331,1.086,1.086,0,0,0,.37-.915v-.116h-.156a8.882,8.882,0,0,0-1.071.039,2.811,2.811,0,0,0-.72.136c-.331.117-.506.312-.506.584a.517.517,0,0,0,.253.448,1.621,1.621,0,0,0,.779.155Zm-6.232-1.811A1.633,1.633,0,0,0,35.229,86a1.38,1.38,0,0,0-1.071-.428h-.039A1.368,1.368,0,0,0,33.028,86a2.158,2.158,0,0,0,0,2.474,1.367,1.367,0,0,0,1.091.428,1.4,1.4,0,0,0,1.11-.448A1.881,1.881,0,0,0,35.618,87.165Zm-1.5-2.59a3.032,3.032,0,0,1,.857-.1,2.717,2.717,0,0,1,2.026.76,2.771,2.771,0,0,1,.74,2.045,2.9,2.9,0,0,1-.721,2.1,2.641,2.641,0,0,1-2.006.76,3.394,3.394,0,0,1-.9-.117,2.62,2.62,0,0,1-.448-.175,2.789,2.789,0,0,1-1.013-.837v.155c0,.156-.019.292-.019.428-.019.137-.039.292-.058.428H30.5a3.907,3.907,0,0,0,.058-.642c.019-.214.039-.409.039-.583V82.258h2.064v3.135a2.893,2.893,0,0,1,1.032-.682,1.814,1.814,0,0,1,.428-.137ZM18.052,82.257h1.481l3.8,7.77H20.837l-.681-1.577H15.929l-.72,1.577H12.871l4.031-7.77Zm0,4.693h1.383l-1.324-2.98-.059.136-1.4,2.844h1.4Zm5.629,3.076v-7.77h2.064v7.77Z" transform="translate(-12.871 -57.932)" fill="#f60" fill-rule="evenodd"/>
        </g>
      </g>
      <g id="Mask_Group_30" data-name="Mask Group 30" transform="translate(0 0)" clip-path="url(#clip-path-2)">
        <path id="Path_2451" data-name="Path 2451" d="M63.127,77.253a1.779,1.779,0,0,1-.623-.331c-1.772-1.694.487-3.681,3.1-4.829V68.82c.623.37.935.409.974.467L68.56,67.3,67.9,65.626c5.843-2.025,8.2-2.8,12.95-3.6l-.856-.779,1.4-.818c3.194,1.071,6.174,1.344,5.668,4.012.136-1.792-2.1-2.493-5.57-3.467l-.643.409,1.266,1.051a76.593,76.593,0,0,0-13.34,3.525l.546,1.48-2.065,2.045a8.937,8.937,0,0,0,7.771-1.324c.019-.019.078-.039.078-.078a5.666,5.666,0,0,0-.681-.662A1.817,1.817,0,0,1,76.1,69.482H75.59a1.438,1.438,0,0,0-.156-.915,9.869,9.869,0,0,1-9.212,1.441V72.54c-1.422.487-3.934,2.045-3.915,3.544a1.4,1.4,0,0,0,.818,1.169Z" transform="translate(-56.616 -56.013)" fill-rule="evenodd"/>
        <g id="Group_2630" data-name="Group 2630" transform="translate(-15.808 3.342)">
          <path id="Path_2452" data-name="Path 2452" d="M47.05,75.168a23.516,23.516,0,0,1-10.809,3.058c-6.018-.117-6.953-4.129-4.09-8.316,2.687-4.226,6.972-8.062,13.807-10.458a25.16,25.16,0,0,1,7.673-1.519c4.031-.039,7.945,1.227,7.693,5.064-.137,2.96-4.4,7.147-6.641,10.147-.974,1.305-1.129,2.142.506,2.083,5.94-.389,11.373-2.453,16.359-4.6-3.35,2.278-20.916,10.983-21.013,5.044A4.709,4.709,0,0,1,51.49,73.3a29.15,29.15,0,0,1,2.143-2.649c1.188-1.363,4.148-4.635,5.141-6.6,1.675-3.7-2.084-3.9-5.316-5.044l-1.4.818.837.779c-4.732.8-7.089,1.577-12.931,3.6l.662,1.675-1.986,1.987c-.039-.058-.35-.1-.974-.467V70.67c-2.609,1.149-4.869,3.135-3.1,4.829a1.772,1.772,0,0,0,.623.331h-.02C38.384,77.642,47.069,75.168,47.05,75.168ZM27.03,83.776V82.257h2.22v1.519Zm.1,6.251V84.614h2.064v5.413H27.127Zm46.409-4.771a1.986,1.986,0,1,1,0,3.973,1.986,1.986,0,1,1,0-3.973Zm0,4.908a2.917,2.917,0,1,0-2.067-.854A2.913,2.913,0,0,0,73.536,90.164Zm-10.613-.137h.915V89.19h-.915Zm6.952-.7a2.853,2.853,0,0,1-2.025.837,2.911,2.911,0,0,1,0-5.823,2.985,2.985,0,0,1,2.025.837,4.255,4.255,0,0,0-.409.935,1.94,1.94,0,0,0-1.616-.856,2,2,0,0,0,0,3.992,2.033,2.033,0,0,0,1.636-.857A3.866,3.866,0,0,0,69.875,89.327Zm7.868.7V84.614h.818v.759a1.961,1.961,0,0,1,1.656-.9,1.844,1.844,0,0,1,.973.254,1.383,1.383,0,0,1,.546.7,1.98,1.98,0,0,1,1.675-.955,1.633,1.633,0,0,1,1.227.448,1.931,1.931,0,0,1,.447,1.382v3.719h-.915V86.62a2.472,2.472,0,0,0-.1-.8.75.75,0,0,0-.312-.389,1.06,1.06,0,0,0-.565-.156,1.279,1.279,0,0,0-.935.389,1.663,1.663,0,0,0-.389,1.208v3.154h-.915V86.5a1.629,1.629,0,0,0-.214-.915A.91.91,0,0,0,80,85.276a1.409,1.409,0,0,0-.72.214,1.168,1.168,0,0,0-.468.584,3.457,3.457,0,0,0-.156,1.149v2.8h-.915Zm6.992-6.6V82.393h-.389v-.136h.935v.136h-.39v1.033Zm.682,0V82.257h.233l.292.837a.9.9,0,0,0,.058.175.527.527,0,0,1,.059-.195l.273-.818h.214v1.169h-.156v-.974l-.331.974H85.9l-.331-.993v.993h-.156Zm-26.369,5.8a2.046,2.046,0,0,1-.974.681,1.652,1.652,0,0,1-.292.1,4.838,4.838,0,0,1-1.246.137,2.5,2.5,0,0,1-1.578-.428,1.373,1.373,0,0,1-.565-1.208,1.828,1.828,0,0,1,.214-.877,1.784,1.784,0,0,1,.624-.643,2.423,2.423,0,0,1,.915-.292,15.183,15.183,0,0,1,1.636-.077h1.226v-.156a.825.825,0,0,0-.253-.662,1.111,1.111,0,0,0-.76-.233H57.78a1.6,1.6,0,0,0-.623.156.679.679,0,0,0-.331.487H54.742a1.62,1.62,0,0,1,.9-1.306A5.029,5.029,0,0,1,57.78,84.5a1.039,1.039,0,0,1,.254-.019,3.962,3.962,0,0,1,2.239.506,1.8,1.8,0,0,1,.74,1.578v2.746a2.159,2.159,0,0,0,.02.389,1.582,1.582,0,0,0,.078.331H59.182a1.623,1.623,0,0,1-.1-.331,2.164,2.164,0,0,1-.039-.369v-.1h0Zm-1.266-.254a1.474,1.474,0,0,0,.857-.331,1.143,1.143,0,0,0,.369-.915v-.116h-.175a8.547,8.547,0,0,0-1.052.039,2.989,2.989,0,0,0-.74.136.607.607,0,0,0-.487.584.48.48,0,0,0,.253.448,1.622,1.622,0,0,0,.779.155Zm-6.232-1.811A1.643,1.643,0,0,0,51.14,86a1.38,1.38,0,0,0-1.071-.428H50.05a1.384,1.384,0,0,0-1.11.428,2.158,2.158,0,0,0,0,2.474,1.394,1.394,0,0,0,1.091.428h.019a1.379,1.379,0,0,0,1.091-.448A1.887,1.887,0,0,0,51.549,87.165Zm-1.5-2.59a2.891,2.891,0,0,1,.837-.1,2.617,2.617,0,0,1,2.785,2.8,2.99,2.99,0,0,1-.72,2.1,2.688,2.688,0,0,1-2.025.76,3.143,3.143,0,0,1-.877-.117,1.784,1.784,0,0,1-.448-.175,2.856,2.856,0,0,1-1.032-.837v.155a3.026,3.026,0,0,1-.019.428,3.188,3.188,0,0,1-.039.428H46.426q.029-.35.058-.642c.019-.214.019-.409.019-.583V82.258h2.064v3.135a2.809,2.809,0,0,1,1.052-.682,1.587,1.587,0,0,1,.429-.137Zm-6.914,4.655a2.106,2.106,0,0,1-.993.681,1.008,1.008,0,0,1-.292.1,4.684,4.684,0,0,1-1.227.137,2.559,2.559,0,0,1-1.6-.428,1.42,1.42,0,0,1-.565-1.208,1.635,1.635,0,0,1,.234-.877,1.781,1.781,0,0,1,.623-.643,2.318,2.318,0,0,1,.9-.292,15.8,15.8,0,0,1,1.636-.077h1.227a.115.115,0,0,1,.02-.078v-.078a.9.9,0,0,0-.253-.662,1.111,1.111,0,0,0-.759-.233H41.85a1.5,1.5,0,0,0-.6.156.631.631,0,0,0-.331.487h-2.1a1.644,1.644,0,0,1,.915-1.306A4.929,4.929,0,0,1,41.85,84.5a1.2,1.2,0,0,1,.253-.019,4.037,4.037,0,0,1,2.259.506,1.788,1.788,0,0,1,.721,1.578v2.746c0,.156.019.292.019.389a1.6,1.6,0,0,0,.1.331H43.272a.929.929,0,0,1-.1-.331,2.161,2.161,0,0,1-.039-.369v-.1h0Zm-1.285-.254a1.377,1.377,0,0,0,.857-.331,1.086,1.086,0,0,0,.37-.915v-.116h-.156a8.882,8.882,0,0,0-1.071.039,2.811,2.811,0,0,0-.72.136c-.331.117-.506.312-.506.584a.517.517,0,0,0,.253.448,1.621,1.621,0,0,0,.779.155Zm-6.232-1.811A1.633,1.633,0,0,0,35.229,86a1.38,1.38,0,0,0-1.071-.428h-.039A1.368,1.368,0,0,0,33.028,86a2.158,2.158,0,0,0,0,2.474,1.367,1.367,0,0,0,1.091.428,1.4,1.4,0,0,0,1.11-.448A1.881,1.881,0,0,0,35.618,87.165Zm-1.5-2.59a3.032,3.032,0,0,1,.857-.1,2.717,2.717,0,0,1,2.026.76,2.771,2.771,0,0,1,.74,2.045,2.9,2.9,0,0,1-.721,2.1,2.641,2.641,0,0,1-2.006.76,3.394,3.394,0,0,1-.9-.117,2.62,2.62,0,0,1-.448-.175,2.789,2.789,0,0,1-1.013-.837v.155c0,.156-.019.292-.019.428-.019.137-.039.292-.058.428H30.5a3.907,3.907,0,0,0,.058-.642c.019-.214.039-.409.039-.583V82.258h2.064v3.135a2.893,2.893,0,0,1,1.032-.682,1.814,1.814,0,0,1,.428-.137ZM18.052,82.257h1.481l3.8,7.77H20.837l-.681-1.577H15.929l-.72,1.577H12.871l4.031-7.77Zm0,4.693h1.383l-1.324-2.98-.059.136-1.4,2.844h1.4Zm5.629,3.076v-7.77h2.064v7.77Z" transform="translate(-12.871 -57.932)" fill="#f60" fill-rule="evenodd"/>
        </g>
      </g>
    </g>
  </g>
</svg>
