<svg xmlns="http://www.w3.org/2000/svg" width="10.788" height="14.384" viewBox="0 0 10.788 14.384">
  <path id="Icon_awesome-hourglass-start" data-name="Icon awesome-hourglass-start" d="M10.114,0H.674A.674.674,0,0,0,0,.674v.45A.674.674,0,0,0,.674,1.8,5.575,5.575,0,0,0,4.069,7.192,5.575,5.575,0,0,0,.674,12.586.674.674,0,0,0,0,13.26v.45a.674.674,0,0,0,.674.674h9.44a.674.674,0,0,0,.674-.674v-.45a.674.674,0,0,0-.674-.674A5.575,5.575,0,0,0,6.719,7.192,5.575,5.575,0,0,0,10.114,1.8a.674.674,0,0,0,.674-.674V.674A.674.674,0,0,0,10.114,0Zm-1.8,12.586H2.472c0-2.176,1.3-4.046,2.922-4.046S8.316,10.409,8.316,12.586Z"/>
</svg>
