<svg xmlns="http://www.w3.org/2000/svg" width="14.608" height="11.362" viewBox="0 0 14.608 11.362">
  <path id="Icon_awesome-book-open" data-name="Icon awesome-book-open" fill="#2c8af8" d="M13.752,2.251a14.1,14.1,0,0,0-5.858,1.41.39.39,0,0,0-.184.334v9.229a.4.4,0,0,0,.59.342,15.469,15.469,0,0,1,5.547-1.19.791.791,0,0,0,.761-.778V3.03a.8.8,0,0,0-.856-.779ZM6.714,3.661A14.1,14.1,0,0,0,.857,2.251.8.8,0,0,0,0,3.03V11.6a.791.791,0,0,0,.761.778A15.467,15.467,0,0,1,6.31,13.567a.4.4,0,0,0,.589-.341V3.99A.382.382,0,0,0,6.714,3.661Z" transform="translate(0 -2.25)"/>
</svg>
