<svg xmlns="http://www.w3.org/2000/svg" width="17.761" height="15.541" viewBox="0 0 17.761 15.541">
  <path id="Icon_awesome-sort-amount-down-alt" data-name="Icon awesome-sort-amount-down-alt" d="M8.325,4.47h2.22a.555.555,0,0,0,.555-.555V2.805a.555.555,0,0,0-.555-.555H8.325a.555.555,0,0,0-.555.555v1.11A.555.555,0,0,0,8.325,4.47Zm0,4.44h4.44a.555.555,0,0,0,.555-.555V7.245a.555.555,0,0,0-.555-.555H8.325a.555.555,0,0,0-.555.555v1.11A.555.555,0,0,0,8.325,8.91Zm8.881,6.66H8.325a.555.555,0,0,0-.555.555v1.11a.555.555,0,0,0,.555.555h8.881a.555.555,0,0,0,.555-.555v-1.11A.555.555,0,0,0,17.206,15.571Zm-8.881-2.22h6.66a.555.555,0,0,0,.555-.555v-1.11a.555.555,0,0,0-.555-.555H8.325a.555.555,0,0,0-.555.555V12.8A.555.555,0,0,0,8.325,13.351Zm-2.22,0H4.44V2.805a.555.555,0,0,0-.555-.555H2.775a.555.555,0,0,0-.555.555V13.351H.555a.555.555,0,0,0-.392.947l2.775,3.33a.555.555,0,0,0,.785,0L6.5,14.3A.556.556,0,0,0,6.105,13.351Z" transform="translate(0 -2.25)"/>
</svg>
