<svg xmlns="http://www.w3.org/2000/svg" width="17.315" height="15.151" viewBox="0 0 17.315 15.151">
  <path id="Icon_awesome-sort-amount-down" data-name="Icon awesome-sort-amount-down" d="M10.281,15.237H8.117a.541.541,0,0,0-.541.541V16.86a.541.541,0,0,0,.541.541h2.164a.541.541,0,0,0,.541-.541V15.778A.541.541,0,0,0,10.281,15.237ZM5.952,13.072H4.329V2.791a.541.541,0,0,0-.541-.541H2.705a.541.541,0,0,0-.541.541V13.072H.541A.541.541,0,0,0,.159,14l2.706,3.247a.541.541,0,0,0,.765,0L6.335,14A.542.542,0,0,0,5.952,13.072ZM14.61,6.579H8.117a.541.541,0,0,0-.541.541V8.2a.541.541,0,0,0,.541.541H14.61a.541.541,0,0,0,.541-.541V7.12A.541.541,0,0,0,14.61,6.579Zm-2.164,4.329H8.117a.541.541,0,0,0-.541.541v1.082a.541.541,0,0,0,.541.541h4.329a.541.541,0,0,0,.541-.541V11.449A.541.541,0,0,0,12.445,10.908ZM16.774,2.25H8.117a.541.541,0,0,0-.541.541V3.873a.541.541,0,0,0,.541.541h8.658a.541.541,0,0,0,.541-.541V2.791A.541.541,0,0,0,16.774,2.25Z" transform="translate(0 -2.25)"/>
</svg>
