<svg id="TA" xmlns="http://www.w3.org/2000/svg" width="16" height="16" viewBox="0 0 16 16">
  <rect id="矩形" width="16" height="16" fill="none"/>
  <path id="形状结合" d="M7.466,16h0L.649,13.838,0,2.162l2.49-.77V3.625h2.4V.659L7.466,0l2.575.659V3.625h2.4V1.391l2.49.77-.65,11.677L7.467,16ZM5.116,9.869a2.047,2.047,0,0,0,.517,1.524,2.2,2.2,0,0,0,1.338.591v.892h.718v-.9a2.09,2.09,0,0,0,1.3-.554,1.732,1.732,0,0,0,.468-1.276A1.7,1.7,0,0,0,9,8.884a4,4,0,0,0-1.427-.8A2.4,2.4,0,0,1,6.7,7.611a.891.891,0,0,1-.235-.646.969.969,0,0,1,.226-.678.9.9,0,0,1,.7-.247.828.828,0,0,1,.7.329,1.5,1.5,0,0,1,.248.917H9.427A2.349,2.349,0,0,0,9,5.809a1.836,1.836,0,0,0-1.217-.663V4.134H7.06v1a1.965,1.965,0,0,0-1.243.577,1.777,1.777,0,0,0-.449,1.262,1.709,1.709,0,0,0,.468,1.278,3.881,3.881,0,0,0,1.437.791,2.267,2.267,0,0,1,.845.466.9.9,0,0,1,.243.65.865.865,0,0,1-.271.679,1.133,1.133,0,0,1-.78.244,1.153,1.153,0,0,1-.788-.274,1.21,1.21,0,0,1-.309-.94Z" transform="translate(0.5)" fill="#face32"/>
</svg>
