<svg id="verified" xmlns="http://www.w3.org/2000/svg" width="33" height="7.83" viewBox="0 0 33 7.83">
  <path id="Path_5374" data-name="Path 5374" d="M3.355,5.331,7.317,0H9.859L4.15,7.83H2.313L0,2.653H2.313Z" fill="#2192d9" fill-rule="evenodd"/>
  <path id="Path_5375" data-name="Path 5375" d="M129.226,9.949a1.528,1.528,0,0,1,.632.548,2.228,2.228,0,0,1,.313.857,6.881,6.881,0,0,1,.084,1.121v.309H127.4v.429a2.877,2.877,0,0,0,.037.463,1.465,1.465,0,0,0,.12.4.758.758,0,0,0,.219.279.531.531,0,0,0,.334.1.6.6,0,0,0,.533-.249,1.778,1.778,0,0,0,.23-.757h1.295a2.09,2.09,0,0,1-.522,1.425,2.048,2.048,0,0,1-1.514.488,2.491,2.491,0,0,1-1.222-.249,1.579,1.579,0,0,1-.647-.658,2.5,2.5,0,0,1-.256-.917c-.025-.272,0-.485,0-.757l2.208-3.03A2.346,2.346,0,0,1,129.226,9.949Zm-.35,2.018q-.01-.309-.042-.543a1.341,1.341,0,0,0-.11-.4.565.565,0,0,0-.219-.249.691.691,0,0,0-.36-.085.634.634,0,0,0-.36.095.69.69,0,0,0-.224.249,1.194,1.194,0,0,0-.12.344,1.994,1.994,0,0,0-.037.379v.209h1.472Zm2.13-2.073h1.378v.718h.021a1.972,1.972,0,0,1,.533-.623,1.237,1.237,0,0,1,.762-.234q.063,0,.13,0t.13.015V11.09q-.115-.01-.224-.015t-.225,0a1.459,1.459,0,0,0-.376.05,1.022,1.022,0,0,0-.345.164.831.831,0,0,0-.251.3.991.991,0,0,0-.094.454v3.219h-1.441Zm3.529-1.834h1.441V9.236h-1.441V8.06Zm0,1.834h1.441v5.362h-1.441Zm2.767.937h-.731V9.894h.731V9.286a1.574,1.574,0,0,1,.1-.608.962.962,0,0,1,.3-.4,1.205,1.205,0,0,1,.475-.214A2.8,2.8,0,0,1,138.807,8q.386,0,.773.03v.977a.828.828,0,0,0-.146-.01H139.3a.7.7,0,0,0-.428.1.4.4,0,0,0-.125.329v.468h.835v.937h-.835v4.425H137.3Zm2.84-2.771h1.441V9.236h-1.441V8.06Zm0,1.834h1.441v5.362h-1.441Zm5.158,2.073q-.01-.309-.042-.543a1.341,1.341,0,0,0-.11-.4.565.565,0,0,0-.219-.249.691.691,0,0,0-.36-.085.634.634,0,0,0-.36.095.691.691,0,0,0-.225.249,1.194,1.194,0,0,0-.12.344,1.993,1.993,0,0,0-.037.379v.209Zm-1.472.817v.429a2.877,2.877,0,0,0,.037.463,1.465,1.465,0,0,0,.12.4.758.758,0,0,0,.219.279.531.531,0,0,0,.334.1.6.6,0,0,0,.533-.249,1.777,1.777,0,0,0,.23-.757H146.6a2.09,2.09,0,0,1-.522,1.425,2.048,2.048,0,0,1-1.514.488,2.491,2.491,0,0,1-1.222-.249,1.579,1.579,0,0,1-.647-.658,2.5,2.5,0,0,1-.256-.917q-.047-.507-.047-1.017a6.672,6.672,0,0,1,.078-1.037,2.423,2.423,0,0,1,.313-.887,1.668,1.668,0,0,1,.674-.618,2.535,2.535,0,0,1,1.17-.229,2.366,2.366,0,0,1,1.029.194,1.528,1.528,0,0,1,.632.548,2.227,2.227,0,0,1,.313.857,6.881,6.881,0,0,1,.084,1.121v.309Zm6.485,1.9h-.021a1.411,1.411,0,0,1-.538.528,1.629,1.629,0,0,1-.736.15,1.442,1.442,0,0,1-1.305-.648,4.119,4.119,0,0,1-.418-2.143,4.206,4.206,0,0,1,.418-2.158,1.432,1.432,0,0,1,1.305-.663,1.411,1.411,0,0,1,.694.159,1.605,1.605,0,0,1,.517.478h.021V8.14h1.441v7.116h-1.378v-.568Zm-1.577-2.113a4.646,4.646,0,0,0,.141,1.321.585.585,0,0,0,.611.444.592.592,0,0,0,.621-.443,4.647,4.647,0,0,0,.141-1.321,4.646,4.646,0,0,0-.141-1.321.592.592,0,0,0-.621-.444.585.585,0,0,0-.611.443,4.647,4.647,0,0,0-.141,1.321Z" transform="translate(-118.692 -7.536)" fill="#3d71b7"/>
</svg>
